<?xml version="1.0" encoding="UTF-8" standalone="no"?>
<!-- Created with Inkscape (http://www.inkscape.org/) -->

<svg
   xmlns:dc="http://purl.org/dc/elements/1.1/"
   xmlns:cc="http://creativecommons.org/ns#"
   xmlns:rdf="http://www.w3.org/1999/02/22-rdf-syntax-ns#"
   xmlns:svg="http://www.w3.org/2000/svg"
   xmlns="http://www.w3.org/2000/svg"
   xmlns:sodipodi="http://sodipodi.sourceforge.net/DTD/sodipodi-0.dtd"
   xmlns:inkscape="http://www.inkscape.org/namespaces/inkscape"
   version="1.2"
   width="64"
   height="64"
   id="svg2985"
   inkscape:version="0.48.4 r9939"
   sodipodi:docname="github.svg">
  <sodipodi:namedview
     pagecolor="#ffffff"
     bordercolor="#666666"
     borderopacity="1"
     objecttolerance="10"
     gridtolerance="10"
     guidetolerance="10"
     inkscape:pageopacity="0"
     inkscape:pageshadow="2"
     inkscape:window-width="1920"
     inkscape:window-height="1056"
     id="namedview6483"
     showgrid="false"
     inkscape:zoom="14.75"
     inkscape:cx="16.995116"
     inkscape:cy="32.547824"
     inkscape:window-x="0"
     inkscape:window-y="24"
     inkscape:window-maximized="1"
     inkscape:current-layer="layer1" />
  <defs
     id="defs2987" />
  <metadata
     id="metadata2990">
    <rdf:RDF>
      <cc:Work
         rdf:about="">
        <dc:format>image/svg+xml</dc:format>
        <dc:type
           rdf:resource="http://purl.org/dc/dcmitype/StillImage" />
        <dc:title></dc:title>
      </cc:Work>
    </rdf:RDF>
  </metadata>
  <g
     id="layer1">
    <rect
       width="62"
       height="62"
       ry="13"
       x="1"
       y="1"
       id="rect3767"
       style="color:#000000;fill:none;stroke:#1b1817;stroke-width:1;stroke-linecap:butt;stroke-linejoin:round;stroke-miterlimit:4;stroke-opacity:1;stroke-dasharray:none;stroke-dashoffset:0;marker:none;visibility:visible;display:inline;overflow:visible;enable-background:accumulate" />
    <text
       x="16.945312"
       y="21"
       id="text3775"
       xml:space="preserve"
       style="font-size:40px;font-style:normal;font-weight:normal;line-height:125%;letter-spacing:0px;word-spacing:0px;fill:#000000;fill-opacity:1;stroke:none;font-family:Sans"><tspan
         x="16.945312"
         y="21"
         id="tspan3777"
         style="font-size:8px;font-style:normal;font-variant:normal;font-weight:normal;font-stretch:normal;font-family:Ubuntu Mono;-inkscape-font-specification:Ubuntu Mono" /></text>
    <flowRoot
       id="flowRoot3779"
       xml:space="preserve"
       style="font-size:40px;font-style:normal;font-weight:normal;line-height:125%;letter-spacing:0px;word-spacing:0px;fill:#000000;fill-opacity:1;stroke:none;font-family:Sans"><flowRegion
         id="flowRegion3781"><rect
           width="85.545456"
           height="69.272728"
           x="-15.727273"
           y="-2.4545455"
           id="rect3783" /></flowRegion><flowPara
         id="flowPara3785" /></flowRoot>    <path
       d="m 32.00017,11.510818 c -11.600828,0 -21.007911,9.405344 -21.007911,21.00791 0,9.281846 6.019406,17.156508 14.366492,19.934347 1.049908,0.194466 1.435362,-0.455726 1.435362,-1.010598 0,-0.50095 -0.01948,-2.155826 -0.02852,-3.911239 -5.844421,1.270813 -7.077663,-2.478662 -7.077663,-2.478662 -0.955633,-2.428217 -2.332551,-3.073886 -2.332551,-3.073886 -1.906046,-1.303863 0.143676,-1.277076 0.143676,-1.277076 2.109557,0.147851 3.220345,2.165219 3.220345,2.165219 1.873694,3.211301 4.914533,2.282803 6.113334,1.74602 0.188552,-1.357783 0.732988,-2.28489 1.333781,-2.809148 -4.666144,-0.531216 -9.571283,-2.33255 -9.571283,-10.382196 0,-2.293587 0.820653,-4.167629 2.164522,-5.638822 -0.218121,-0.529477 -0.937194,-2.665822 0.203512,-5.559506 0,0 1.76411,-0.564613 5.778672,2.153391 1.675747,-0.465466 3.472907,-0.698896 5.258238,-0.706897 1.785332,0.008 3.583883,0.241431 5.262762,0.706897 4.009691,-2.718004 5.771367,-2.153391 5.771367,-2.153391 1.143489,2.893684 0.424068,5.030029 0.205946,5.559506 1.347,1.471193 2.162088,3.345235 2.162088,5.638822 0,8.068779 -4.914532,9.845414 -9.592504,10.365497 0.753512,0.651932 1.424925,1.930399 1.424925,3.890367 0,2.810889 -0.02435,5.073166 -0.02435,5.765104 0,0.559047 0.378149,1.214109 1.443016,1.007815 8.342563,-2.780971 14.354315,-10.652849 14.354315,-19.931564 0,-11.602566 -9.405691,-21.00791 -21.007563,-21.00791"
       id="path18"
       style="fill:none;fill-opacity:1;fill-rule:evenodd;stroke:#1b1817;stroke-opacity:1;stroke-linejoin:round" />
  </g>
</svg>
