<?xml version="1.0" encoding="UTF-8" standalone="no"?>
<!-- Created with Inkscape (http://www.inkscape.org/) -->

<svg
   xmlns:dc="http://purl.org/dc/elements/1.1/"
   xmlns:cc="http://creativecommons.org/ns#"
   xmlns:rdf="http://www.w3.org/1999/02/22-rdf-syntax-ns#"
   xmlns:svg="http://www.w3.org/2000/svg"
   xmlns="http://www.w3.org/2000/svg"
   xmlns:sodipodi="http://sodipodi.sourceforge.net/DTD/sodipodi-0.dtd"
   xmlns:inkscape="http://www.inkscape.org/namespaces/inkscape"
   width="64px"
   height="64px"
   id="svg2985"
   version="1.1"
   inkscape:version="0.48.4 r9939"
   sodipodi:docname="cv.svg">
  <defs
     id="defs2987" />
  <sodipodi:namedview
     id="base"
     pagecolor="#ffffff"
     bordercolor="#666666"
     borderopacity="1.0"
     inkscape:pageopacity="0.0"
     inkscape:pageshadow="2"
     inkscape:zoom="11"
     inkscape:cx="17.806886"
     inkscape:cy="31.556008"
     inkscape:current-layer="layer1"
     showgrid="true"
     inkscape:document-units="px"
     inkscape:grid-bbox="true"
     inkscape:window-width="1920"
     inkscape:window-height="1056"
     inkscape:window-x="0"
     inkscape:window-y="24"
     inkscape:window-maximized="1">
    <inkscape:grid
       type="xygrid"
       id="grid2993" />
  </sodipodi:namedview>
  <metadata
     id="metadata2990">
    <rdf:RDF>
      <cc:Work
         rdf:about="">
        <dc:format>image/svg+xml</dc:format>
        <dc:type
           rdf:resource="http://purl.org/dc/dcmitype/StillImage" />
        <dc:title></dc:title>
      </cc:Work>
    </rdf:RDF>
  </metadata>
  <g
     id="layer1"
     inkscape:label="Layer 1"
     inkscape:groupmode="layer">
    <rect
       style="color:#000000;fill:none;stroke:#1b1817;stroke-width:1;stroke-linecap:butt;stroke-linejoin:round;stroke-miterlimit:4;stroke-opacity:1;stroke-dasharray:none;stroke-dashoffset:0;marker:none;visibility:visible;display:inline;overflow:visible;enable-background:accumulate"
       id="rect3767"
       width="62"
       height="62"
       x="1"
       y="1"
       ry="13" />
    <text
       xml:space="preserve"
       style="font-size:40px;font-style:normal;font-weight:normal;line-height:125%;letter-spacing:0px;word-spacing:0px;fill:#000000;fill-opacity:1;stroke:none;font-family:Sans"
       x="16.945312"
       y="21"
       id="text3775"
       sodipodi:linespacing="125%"><tspan
         sodipodi:role="line"
         id="tspan3777"
         x="16.945312"
         y="21"
         style="font-size:8px;font-style:normal;font-variant:normal;font-weight:normal;font-stretch:normal;font-family:Ubuntu Mono;-inkscape-font-specification:Ubuntu Mono" /></text>
    <flowRoot
       xml:space="preserve"
       id="flowRoot3779"
       style="fill:black;stroke:none;stroke-opacity:1;stroke-width:1px;stroke-linejoin:miter;stroke-linecap:butt;fill-opacity:1;font-family:Sans;font-style:normal;font-weight:normal;font-size:40px;line-height:125%;letter-spacing:0px;word-spacing:0px"><flowRegion
         id="flowRegion3781"><rect
           id="rect3783"
           width="85.545456"
           height="69.272728"
           x="-15.727273"
           y="-2.4545455" /></flowRegion><flowPara
         id="flowPara3785"></flowPara></flowRoot>    <path
       style="fill:none;stroke:#1b1817;stroke-width:0.79884887;stroke-opacity:1"
       inkscape:connector-curvature="0"
       id="path5"
       d="m 52.166391,19.491302 c -1.483843,0.658229 -3.0788,1.102898 -4.752409,1.302949 1.708296,-1.024051 3.02052,-2.645629 3.638218,-4.577969 -1.598992,0.948424 -3.369803,1.636904 -5.254753,2.007966 -1.509252,-1.608268 -3.659794,-2.612958 -6.03983,-2.612958 -4.5697,0 -8.274869,3.704763 -8.274869,8.274466 0,0.64855 0.07321,1.280162 0.214368,1.885759 -6.877139,-0.345047 -12.97424,-3.639428 -17.055512,-8.64573 -0.712276,1.222082 -1.120442,2.643408 -1.120442,4.15992 0,2.870885 1.460852,5.40358 3.681167,6.887422 -1.356388,-0.04295 -2.632314,-0.415226 -3.747918,-1.034937 -0.001,0.03449 -0.001,0.06917 -0.001,0.104058 0,4.009077 2.852336,7.353265 6.637765,8.113942 -0.694328,0.189161 -1.42536,0.290192 -2.179988,0.290192 -0.533197,0 -1.051472,-0.05204 -1.556842,-0.148423 1.053088,3.28732 4.1089,5.679658 7.729974,5.746206 -2.831964,2.219512 -6.399798,3.542427 -10.276786,3.542427 -0.667912,0 -1.326544,-0.03933 -1.973885,-0.115757 3.662012,2.347973 8.011496,3.717875 12.684449,3.717875 15.220169,0 23.543436,-12.608621 23.543436,-23.543639 0,-0.35876 -0.0081,-0.715504 -0.024,-1.070631 1.616535,-1.166426 3.019309,-2.62365 4.128663,-4.283138 z" />
  </g>
</svg>
