<?xml version="1.0" encoding="UTF-8" standalone="no"?>
<!-- Created with Inkscape (http://www.inkscape.org/) -->

<svg
   xmlns:dc="http://purl.org/dc/elements/1.1/"
   xmlns:cc="http://creativecommons.org/ns#"
   xmlns:rdf="http://www.w3.org/1999/02/22-rdf-syntax-ns#"
   xmlns:svg="http://www.w3.org/2000/svg"
   xmlns="http://www.w3.org/2000/svg"
   xmlns:sodipodi="http://sodipodi.sourceforge.net/DTD/sodipodi-0.dtd"
   xmlns:inkscape="http://www.inkscape.org/namespaces/inkscape"
   width="64px"
   height="64px"
   id="svg2985"
   version="1.1"
   inkscape:version="0.48.4 r9939"
   sodipodi:docname="wikipedia.svg">
  <defs
     id="defs2987" />
  <sodipodi:namedview
     id="base"
     pagecolor="#ffffff"
     bordercolor="#666666"
     borderopacity="1.0"
     inkscape:pageopacity="0.0"
     inkscape:pageshadow="2"
     inkscape:zoom="11"
     inkscape:cx="17.806886"
     inkscape:cy="31.556008"
     inkscape:current-layer="layer1"
     showgrid="true"
     inkscape:document-units="px"
     inkscape:grid-bbox="true"
     inkscape:window-width="1920"
     inkscape:window-height="1056"
     inkscape:window-x="0"
     inkscape:window-y="24"
     inkscape:window-maximized="1">
    <inkscape:grid
       type="xygrid"
       id="grid2993" />
  </sodipodi:namedview>
  <metadata
     id="metadata2990">
    <rdf:RDF>
      <cc:Work
         rdf:about="">
        <dc:format>image/svg+xml</dc:format>
        <dc:type
           rdf:resource="http://purl.org/dc/dcmitype/StillImage" />
        <dc:title></dc:title>
      </cc:Work>
    </rdf:RDF>
  </metadata>
  <g
     id="layer1"
     inkscape:label="Layer 1"
     inkscape:groupmode="layer">
    <rect
       style="color:#000000;fill:none;stroke:#1b1817;stroke-width:1;stroke-linecap:butt;stroke-linejoin:round;stroke-miterlimit:4;stroke-opacity:1;stroke-dasharray:none;stroke-dashoffset:0;marker:none;visibility:visible;display:inline;overflow:visible;enable-background:accumulate"
       id="rect3767"
       width="62"
       height="62"
       x="1"
       y="1"
       ry="13" />
    <text
       xml:space="preserve"
       style="font-size:40px;font-style:normal;font-weight:normal;line-height:125%;letter-spacing:0px;word-spacing:0px;fill:#000000;fill-opacity:1;stroke:none;font-family:Sans"
       x="16.945312"
       y="21"
       id="text3775"
       sodipodi:linespacing="125%"><tspan
         sodipodi:role="line"
         id="tspan3777"
         x="16.945312"
         y="21"
         style="font-size:8px;font-style:normal;font-variant:normal;font-weight:normal;font-stretch:normal;font-family:Ubuntu Mono;-inkscape-font-specification:Ubuntu Mono" /></text>
    <flowRoot
       xml:space="preserve"
       id="flowRoot3779"
       style="fill:black;stroke:none;stroke-opacity:1;stroke-width:1px;stroke-linejoin:miter;stroke-linecap:butt;fill-opacity:1;font-family:Sans;font-style:normal;font-weight:normal;font-size:40px;line-height:125%;letter-spacing:0px;word-spacing:0px"><flowRegion
         id="flowRegion3781"><rect
           id="rect3783"
           width="85.545456"
           height="69.272728"
           x="-15.727273"
           y="-2.4545455" /></flowRegion><flowPara
         id="flowPara3785"></flowPara></flowRoot>    <path
       inkscape:connector-curvature="0"
       style="fill-rule:evenodd;fill:none;fill-opacity:1;stroke:#1b1817;stroke-opacity:1;stroke-linejoin:round"
       id="letterw"
       d="m 54.599811,18.16979 c 0,0.16299 -0.05168,0.310077 -0.151063,0.445239 -0.103358,0.131186 -0.210693,0.198767 -0.333929,0.198767 -0.989859,0.09541 -1.804804,0.413435 -2.432908,0.958057 -0.632079,0.540647 -1.28006,1.57821 -1.951892,3.104741 L 39.47364,45.989223 c -0.06758,0.214668 -0.254421,0.322003 -0.564498,0.322003 -0.242496,0 -0.429337,-0.107335 -0.564498,-0.322003 l -5.752318,-12.02938 -6.614967,12.02938 c -0.135161,0.214668 -0.322002,0.322003 -0.564497,0.322003 -0.294176,0 -0.488968,-0.107335 -0.584376,-0.322003 L 14.750998,22.876594 c -0.628104,-1.435098 -1.291986,-2.436884 -1.991646,-3.005357 -0.695684,-0.568474 -1.669644,-0.92228 -2.9139246,-1.057441 -0.1073338,0 -0.2106937,-0.05566 -0.3021266,-0.17094 -0.095409,-0.111309 -0.1431114,-0.242496 -0.1431114,-0.389583 0,-0.377658 0.1073338,-0.564499 0.3220024,-0.564499 0.8984262,0 1.8366082,0.03976 2.8185172,0.11926 0.910352,0.08348 1.769026,0.123236 2.572046,0.123236 0.818919,0 1.784927,-0.03976 2.898022,-0.123236 1.164775,-0.07951 2.198363,-0.11926 3.096791,-0.11926 0.214668,0 0.322003,0.186841 0.322003,0.564499 0,0.373682 -0.06758,0.560523 -0.198767,0.560523 -0.898428,0.06758 -1.606039,0.29815 -2.122833,0.683758 -0.516795,0.389584 -0.775192,0.898427 -0.775192,1.530507 0,0.322002 0.107335,0.723512 0.322004,1.204527 l 8.328338,18.807336 4.72668,-8.928614 -4.404678,-9.234716 c -0.791093,-1.645792 -1.443048,-2.711183 -1.951892,-3.188223 -0.508844,-0.473066 -1.280059,-0.767242 -2.313648,-0.874575 -0.09541,0 -0.182866,-0.05566 -0.270323,-0.17094 -0.08746,-0.111309 -0.131187,-0.242496 -0.131187,-0.389583 0,-0.377658 0.09143,-0.564499 0.28225,-0.564499 0.898427,0 1.721322,0.03976 2.472661,0.11926 0.723513,0.08348 1.494729,0.123236 2.313649,0.123236 0.803018,0 1.653741,-0.03976 2.552168,-0.123236 0.926255,-0.07951 1.836607,-0.11926 2.735034,-0.11926 0.214669,0 0.322004,0.186841 0.322004,0.564499 0,0.373682 -0.06361,0.560523 -0.198768,0.560523 -1.796854,0.123235 -2.695281,0.632079 -2.695281,1.530505 0,0.40151 0.206718,1.025639 0.624129,1.868411 l 2.913924,5.915307 2.898024,-5.410438 c 0.401508,-0.763266 0.604251,-1.407271 0.604251,-1.932017 0,-1.232355 -0.898427,-1.888286 -2.695281,-1.971768 -0.162989,0 -0.242496,-0.186841 -0.242496,-0.560523 0,-0.135161 0.03976,-0.262373 0.119261,-0.381633 0.08348,-0.123235 0.162989,-0.182866 0.242495,-0.182866 0.644006,0 1.435099,0.03976 2.373278,0.11926 0.898427,0.08348 1.637841,0.123236 2.214265,0.123236 0.413436,0 1.025639,-0.03578 1.828658,-0.103358 1.017686,-0.09143 1.872385,-0.139138 2.556143,-0.139138 0.159013,0 0.23852,0.159015 0.23852,0.481016 0,0.429337 -0.147087,0.644006 -0.441263,0.644006 -1.045514,0.107333 -1.888287,0.397534 -2.52434,0.866624 -0.636055,0.46909 -1.431123,1.534482 -2.38123,3.196174 l -3.864031,7.143688 5.231549,10.657886 7.724086,-17.960587 c 0.266348,-0.655932 0.40151,-1.260184 0.40151,-1.808781 0,-1.315837 -0.898427,-2.011522 -2.695281,-2.095004 -0.162989,0 -0.242495,-0.186841 -0.242495,-0.560523 0,-0.377658 0.119259,-0.564499 0.361755,-0.564499 0.655931,0 1.435098,0.03976 2.333525,0.11926 0.830846,0.08348 1.530506,0.123236 2.091029,0.123236 0.592325,0 1.276083,-0.03976 2.051276,-0.123236 0.806993,-0.07951 1.530505,-0.11926 2.174511,-0.11926 0.18684,0 0.282249,0.159015 0.282249,0.481016 z" />
  </g>
</svg>
